<svg xmlns="http://www.w3.org/2000/svg" width="13" height="26" viewBox="0 0 13 26">
  <path fill="#FFFFFF" fill-rule="evenodd" d="M27.3984375,19.3847656 L31.3007812,19.3847656 L30.8261719,23.65625 L27.3984375,23.65625 L27.3984375,36.0488281 L22.2832031,36.0488281 L22.2832031,23.65625 L19.6992188,23.65625 L19.6992188,19.3847656 L22.2832031,19.3847656 L22.2832031,16.8007812 C22.2832031,14.9726471 22.7050739,13.5839891 23.5488281,12.6347656 C24.4277388,11.7206986 25.8515527,11.2636719 27.8203125,11.2636719 L31.2480469,11.2636719 L31.2480469,15.5351562 L29.1386719,15.5351562 C28.6464819,15.5351562 28.3300788,15.5703121 28.1894531,15.640625 C27.9433581,15.6757814 27.7675787,15.7812491 27.6621094,15.9570312 C27.5917965,16.097657 27.5214847,16.2734364 27.4511719,16.484375 C27.4511719,16.5195314 27.4423829,16.6249991 27.4248047,16.8007812 C27.4072265,16.9765634 27.3984375,17.117187 27.3984375,17.2226562 L27.3984375,19.3847656 Z" transform="translate(-19 -11)"/>
</svg>
