<svg xmlns="http://www.w3.org/2000/svg" width="25" height="23" viewBox="0 0 25 23">
  <path fill="#FFFFFF" fill-rule="evenodd" d="M129.171875,20.4394531 L129.171875,35.3632812 L124.214844,35.3632812 L124.214844,20.4394531 L129.171875,20.4394531 Z M129.488281,15.7988281 C129.488281,16.5722695 129.24219,17.1874977 128.75,17.6445312 C128.187497,18.1367212 127.501957,18.3828125 126.693359,18.3828125 C125.849605,18.3828125 125.181643,18.1367212 124.689453,17.6445312 C124.197263,17.1874977 123.951172,16.5722695 123.951172,15.7988281 C123.951172,15.0253868 124.197263,14.4101585 124.689453,13.953125 C125.251956,13.460935 125.937496,13.2148438 126.746094,13.2148438 C127.519535,13.2148438 128.187497,13.460935 128.75,13.953125 C129.24219,14.445315 129.488281,15.0605432 129.488281,15.7988281 Z M147.048828,26.7675781 L147.048828,35.3632812 L142.091797,35.3632812 L142.091797,27.3476562 C142.091797,26.2929635 141.898439,25.4667999 141.511719,24.8691406 C141.089842,24.2714814 140.457035,23.9726562 139.613281,23.9726562 C139.015622,23.9726562 138.488284,24.1484357 138.03125,24.5 C137.574216,24.8515643 137.240235,25.291013 137.029297,25.8183594 C136.923828,26.0996108 136.871094,26.5039036 136.871094,27.03125 L136.871094,35.3632812 L131.914062,35.3632812 C131.949219,32.6913929 131.966797,29.4394723 131.966797,25.6074219 L131.966797,21.125 L131.914062,20.4394531 L136.871094,20.4394531 L136.871094,22.6015625 C137.222658,22.0742161 137.416015,21.7929689 137.451172,21.7578125 C137.626954,21.5117175 137.925779,21.2480483 138.347656,20.9667969 C138.699221,20.6855455 139.121091,20.4570321 139.613281,20.28125 C140.070315,20.1406243 140.650387,20.0703125 141.353516,20.0703125 C143.07618,20.0703125 144.464838,20.6328069 145.519531,21.7578125 C146.539068,22.8828181 147.048828,24.5527233 147.048828,26.7675781 Z" transform="translate(-123 -13)"/>
</svg>
