<svg id="unity-logo" class="svg-unity-logo" aria-labelledby="unity-logo-title" role="img" xmlns="http://www.w3.org/2000/svg" viewBox="0 0 281 46">
  <title id="unity-logo-title">Powered By Unity</title>
  <g fill="#FFFFFF" fill-rule="evenodd">
    <path d="M7.17974814 13.7921474C5.982828 12.5007822 4.98701346 11.4058969 4.19338381 10.5049013 3.39903465 9.60649595 2.89177363 9.04517759 2.67196052 8.82427643 2.09922326 8.24926738 1.62865772 7.97545355 1.25918463 8.00172487.890790809 8.02873624.606580735 8.24408712.407993443 8.64962761.210125671 9.05553811.0852890943 9.58651494.0338434734 10.2432981-.0150838304 10.8997113-.011126475 11.5601947.0467948185 12.2232682.105435631 12.8867117.217320863 13.5002027.383889551 14.0648512.549378961 14.6309798.742210099 15.0231996.962742726 15.2448408 1.74270151 16.0281704 2.64605783 16.951367 3.65698227 18 4.82656069 16.7941091 6.46310705 15.6500113 8 14.7160841 7.66110647 14.3316347 7.31249943 13.9357147 7.17974814 13.7921474M34.8064366 18.9503063C35.5997774 20.3176783 36.1842284 21.6308326 36.5630936 22.886516 36.9412245 24.1414765 37.0693485 25.3024595 36.9493011 26.3687422 36.8281524 27.4335791 36.3740281 28.363956 35.5843585 29.1602342 34.6125986 30.1404914 33.4400255 30.6436322 32.0703104 30.6736327 32.0600311 30.6739942 32.0515874 30.6772472 32.0413081 30.6776087 31.6947492 30.6833919 31.3419494 30.6682109 30.9825414 30.6317043 30.453158 30.5782094 29.9043175 30.4629063 29.3466661 30.3172413 28.7702917 30.1668773 28.1840052 29.9832598 27.5775271 29.7342196 26.5180262 29.3015618 25.4273203 28.7391429 24.3101819 28.0708186 23.747758 27.734307 23.1809287 27.3793614 22.6038201 26.9835717 20.8802037 25.8019859 19.1771459 24.5105187 17.4950138 23.1098932 17.1264279 22.8030206 16.7754636 22.4874732 16.413853 22.1769862 15.9384359 22.4603643 15.4710954 22.7495258 15.0177053 23.0488078 13.8726661 23.8031576 12.8704354 24.6077493 12 25.4589682 12.7151448 26.0868099 13.4427715 26.7153745 14.1938938 27.344662 15.8305034 28.7185401 17.4928111 29.9847057 19.1793486 31.1449658 20.4227754 32.0005221 21.678317 32.735715 22.9393654 33.4127142 22.9720389 33.4304253 23.0050795 33.447775 23.0377529 33.4651247 23.4547983 33.6874175 23.869641 33.9306745 24.2888891 34.1330875 24.4750177 34.2234505 24.6582093 34.298271 24.8432365 34.3821278 25.9196248 34.8700877 26.9776573 35.2597327 28.0136627 35.53046 28.4431901 35.6428715 28.8701476 35.7386562 29.2926998 35.8138382 30.9098521 36.100108 32.4590877 36.0560109 33.9433435 35.6829927 35.4261309 35.3085286 36.7951118 34.4869488 38.0532233 33.2186146 39.0470102 32.2163088 39.6545895 31.065085 39.8774298 29.7660273 40.0973331 28.4669697 40.0213398 27.0833324 39.6494499 25.6147539 39.2760914 24.1476212 38.6505233 22.6179573 37.7720113 21.0250394 36.8942335 19.4332058 35.8725457 17.8377578 34.7062136 16.2412253 34.4029746 15.8259173 34.0744045 15.4138623 33.7575821 15 33.7337195 15.8317005 33.6918681 16.5517124 33.6522194 17.0924442 34.0589855 17.7145027 34.4492314 18.3347539 34.8064366 18.9503063M22.2487946 37.2167242C21.7186882 38.9640187 21.2587946 40.427713 20.8667733 41.60894 20.4770925 42.7897893 20.2395393 43.5371193 20.1572344 43.849797 19.9426954 44.6635899 19.9477663 45.2311679 20.1720571 45.5536641 20.3967379 45.8750273 20.7474116 46.0234359 21.2252485 45.9970018 21.7030854 45.9698124 22.2554258 45.8123407 22.8830499 45.5238313 23.5087236 45.2334337 24.1094328 44.8928114 24.6832271 44.5015866 25.2574115 44.1096065 25.7567022 43.6949687 26.1818795 43.2554072 26.6090071 42.8162234 26.8629433 42.4408591 26.9456383 42.1270485 27.2378014 41.0187041 27.5908156 39.7260763 28 38.2722003 26.2653547 37.824331 24.3333335 36.9206622 22.647447 36 22.4804967 36.5041362 22.3076953 37.023 22.2487946 37.2167242"/>
    <path d="M13.0019998 10.3881615C13.8223572 8.99271661 14.6998706 7.8075341 15.6311779 6.83224311 16.5621116 5.85769378 17.5363794 5.15014427 18.5513661 4.70848207 19.5663529 4.26756154 20.6302772 4.18783243 21.7446332 4.4700364 23.1163783 4.817507 24.1631184 5.58513147 24.887095 6.76808898 24.8926985 6.77661814 24.8997963 6.78218064 24.9053999 6.79145147 25.0869544 7.09145543 25.252819 7.40777604 25.4029937 7.74078414 25.62452 8.2313963 25.800471 8.7705876 25.9540078 9.33314138 26.1124011 9.91460764 26.2461387 10.5216614 26.3324331 11.1798901 26.4837286 12.3291018 26.5352811 13.5713926 26.5053956 14.8915584 26.4904528 15.5560912 26.4613144 16.2339741 26.4004227 16.9422653 26.2199889 19.0560138 25.930473 21.208329 25.5326221 23.3980983 25.4455805 23.8779563 25.3417284 24.3470602 25.247589 24.8224682 25.743315 25.0928055 26.2401616 25.3535011 26.738129 25.5967676 27.9963091 26.211238 29.226098 26.6755211 30.4308578 27 30.6292229 26.0525215 30.8216108 25.0935472 31.0027918 24.1138062 31.3998955 21.977066 31.68717 19.8733299 31.8676038 17.8029689 32.0005944 16.2762491 32.0200199 14.8007043 31.9841573 13.3503761 31.9834102 13.3125511 31.9822895 13.275097 31.9811688 13.237272 31.9677203 12.7585265 31.9744445 12.270881 31.9426912 11.8002938 31.9288691 11.591144 31.9023457 11.3927483 31.8832937 11.1876776 31.7723437 9.99582009 31.5829443 8.8703417 31.2982848 7.82496325 31.180237 7.39145939 31.0487407 6.96908051 30.9008075 6.56079329 30.334477 4.99921521 29.5070218 3.66681196 28.4176949 2.55987522 27.3283679 1.45479265 25.8964782.678639025 24.1209051.228818502 22.7181539-.126810419 21.3785357-.0674771264 20.1024243.403851715 18.8278071.877776387 17.6279038 1.65430085 16.5027142 2.73268344 15.379766 3.81217853 14.3289166 5.14384011 13.3501661 6.72952234 12.3717891 8.31409208 11.463643 10.0262284 10.6279694 11.8655605 10.4105522 12.3439351 10.208825 12.8427056 10 13.3318344 10.7564771 12.9261431 11.4221769 12.5935058 11.9261213 12.350981 12.2761554 11.6760648 12.6325402 11.0163527 13.0019998 10.3881615M35.8338309 13.7143306C37.5691564 13.2673326 39.0304442 12.9061143 40.2199161 12.6334298 41.4075364 12.3587779 42.1552151 12.1765948 42.4596192 12.0857 43.2528474 11.849216 43.7324134 11.5493812 43.8997986 11.1854084 44.0660729 10.8218291 44.0257079 10.4377886 43.7764816 10.0344675 43.5265148 9.63114627 43.130271 9.230186 42.58738 8.83276708 42.0441187 8.43731558 41.4693801 8.08986914 40.8650158 7.79239517 40.2595405 7.49492121 39.6703593 7.27496361 39.0952504 7.13252237 38.5194008 6.98772023 38.0798295 6.96214377 37.7743144 7.05303859 36.6940873 7.37530205 35.4290698 7.74006179 34 8.1402351 34.4429042 9.88887834 34.592514 12.047532 34.6110301 14 35.1183702 13.8831352 35.6412639 13.7639096 35.8338309 13.7143306"/>
    <path d="M16.6199314 34.4455132C15.0148758 34.4380469 13.5623318 34.2745334 12.2641412 33.959826 10.9666875 33.644372 9.87773994 33.1575649 8.9969302 32.5012712 8.117594 31.8449775 7.52412495 30.9646928 7.21762821 29.8578039 6.84040145 28.4959385 6.98444019 27.2035103 7.64532378 25.9816393 7.65011279 25.9723063 7.65121795 25.9633467 7.65637535 25.9540137 7.82472752 25.6460261 8.01555121 25.3428916 8.22774126 25.0453568 8.54050056 24.6067077 8.91772731 24.1829914 9.32589845 23.7671147 9.74806824 23.3374253 10.2044979 22.9159489 10.7283421 22.5101518 11.6419381 21.8004736 12.6855743 21.1303671 13.8360422 20.4919927 14.4151442 20.1705656 15.0126655 19.854365 15.6518143 19.5504838 17.5593145 18.6429469 19.5537536 17.8100736 21.6340265 17.0522373 22.0897194 16.8861106 22.5446755 16.7397699 23 16.5818562 22.9882117 16.0166522 22.9675821 15.4555547 22.9307435 14.9019235 22.8393839 13.5038463 22.6323513 12.2058183 22.31775 11 21.4045224 11.3050011 20.4846638 11.6212018 19.5526484 11.9579349 17.5184237 12.6896389 15.5667173 13.4997398 13.6967925 14.3859976 12.3179255 15.0393047 11.0388911 15.7650356 9.80885185 16.5262317 9.77680231 16.5460176 9.74475277 16.5658035 9.71307162 16.5855894 9.30747918 16.8383259 8.88457262 17.0779963 8.49555753 17.3423057 8.32241634 17.4595277 8.16474734 17.5823494 7.99786871 17.7021846 7.0271729 18.39805 6.15225733 19.1282607 5.39338319 19.9010298 5.07878197 20.2213369 4.78038971 20.5476172 4.50189027 20.8813638 3.43762455 22.1577393 2.69938 23.5442437 2.28384115 25.0442369 1.87051261 26.5434834 1.9088247 28.1733914 2.39730388 29.9362007 2.78300351 31.3290515 3.49435592 32.4587129 4.5291508 33.3255581 5.56541922 34.1901635 6.82492926 34.8378708 8.30768092 35.2686802 9.79006419 35.697623 11.4536931 35.9365468 13.3004097 35.9854515 15.146021 36.0347295 17.0667831 35.9589459 19.0612222 35.756234 19.579909 35.7035961 20.1085422 35.6270659 20.6323864 35.5617351 19.9103508 35.1111399 19.2962521 34.7023563 18.8390857 34.3883955 18.085369 34.425354 17.3423354 34.4488731 16.6199314 34.4455132M51 37.6507937L54.5190208 17.7777778 56.6944155 17.7777778 56.1185757 20.4761905C57.2702552 18.6031746 59.0617567 17.4920635 61.109187 17.4920635 64.4362612 17.4920635 66.7396203 20.0634921 66.7396203 23.8095238 66.7396203 28.1269841 63.7324571 31.1746032 60.117463 31.1746032 57.5901662 31.1746032 55.6387092 29.5873016 54.9988873 27.4603175L53.1753947 37.6507937 51 37.6507937zM59.6375965 29.3015873C62.5487864 29.3015873 64.5002434 26.952381 64.5002434 23.8095238 64.5002434 21.2063492 62.9646707 19.3968254 60.5333472 19.3968254 57.6861395 19.3968254 55.5427359 21.6507937 55.5427359 24.7619048 55.5427359 27.3650794 57.1102997 29.3015873 59.6375965 29.3015873zM76.2409764 31.1746032C72.530009 31.1746032 69.6188191 28.2857143 69.6188191 24.6666667 69.6188191 20.5714286 72.7859378 17.4920635 76.7848251 17.4920635 80.4957925 17.4920635 83.3749913 20.3809524 83.3749913 24.031746 83.3749913 28.1269841 80.2398637 31.1746032 76.2409764 31.1746032zM76.2729675 29.3015873C79.2161485 29.3015873 81.1356144 27.047619 81.1356144 24 81.1356144 21.3650794 79.4080951 19.3968254 76.752834 19.3968254 73.8736352 19.3968254 71.858196 21.6507937 71.858196 24.6984127 71.858196 27.3650794 73.6496975 29.3015873 76.2729675 29.3015873zM96.1714222 21.428595C96.1693582 21.4343942 95.7862426 22.510078 95.3076709 23.3015873L90.3170596 31.2063492 89.9651575 31.2063492 86.7660477 17.7777778 89.0374157 17.7777778 90.6689617 25.1428571C90.8604357 25.966222 90.9882422 27.137076 90.9888703 27.1428358 90.9913442 27.1369732 91.4700572 25.9977928 91.9805967 25.1428571L96.5553237 17.5873016 96.8432436 17.5873016 99.0186383 25.047619C99.2419525 25.8707177 99.4016402 27.0410807 99.4025278 27.0475918 99.4049884 27.0408714 99.8198329 25.9022306 100.298282 25.047619L104.329161 17.7777778 106.600529 17.7777778 99.1146116 31.2063492 98.7627095 31.2063492 96.5553237 23.3968254C96.3000456 22.5418618 96.1720821 21.4342197 96.171433 21.428593L96.1714222 21.428595zM99.4025278 27.0475892C99.4025302 27.0476099 99.4025315 27.047619 99.4025315 27.047619 99.4025315 27.047619 99.4025351 27.0476091 99.4025423 27.0475892L99.4025278 27.0475892zM90.9888703 27.1428344C90.9888719 27.14285 90.9888727 27.1428571 90.9888727 27.1428571 90.9888727 27.1428571 90.9888758 27.1428496 90.9888822 27.1428344L90.9888703 27.1428344zM109.927603 25.5238095C110.279505 27.8095238 111.975033 29.3650794 114.470339 29.3650794 116.389805 29.3650794 117.669449 28.6666667 118.59719 27.7142857L119.972808 29.047619C118.693164 30.3492063 116.869671 31.1746032 114.470339 31.1746032 110.407469 31.1746032 107.688226 28.3809524 107.688226 24.6349206 107.688226 20.5714286 110.695389 17.4920635 114.566312 17.4920635 118.693164 17.4920635 120.740594 20.4126984 120.804576 24.3809524L109.927603 25.5238095zM109.895612 23.8730159L118.501217 22.984127C118.30927 21.1111111 117.189582 19.2698413 114.534321 19.2698413 111.943042 19.2698413 110.183532 21.1428571 109.895612 23.8730159zM123.299882 30.9206349L125.635232 17.7777778 127.810627 17.7777778 127.170805 20.6031746C128.162529 18.6349206 129.538146 17.5238095 131.297656 17.5238095 132.065443 17.5238095 132.513318 17.6825397 133.025176 17.9365079L132.161416 19.8730159C131.777523 19.6507937 131.361639 19.5555556 130.849781 19.5555556 128.674386 19.5555556 127.202796 21.1746032 126.690938 24.0634921L125.475276 30.9206349 123.299882 30.9206349zM136.448223 25.5238095C136.800125 27.8095238 138.495653 29.3650794 140.990959 29.3650794 142.910425 29.3650794 144.190069 28.6666667 145.117811 27.7142857L146.493428 29.047619C145.213784 30.3492063 143.390291 31.1746032 140.990959 31.1746032 136.92809 31.1746032 134.208846 28.3809524 134.208846 24.6349206 134.208846 20.5714286 137.216009 17.4920635 141.086932 17.4920635 145.213784 17.4920635 147.261214 20.4126984 147.325196 24.3809524L136.448223 25.5238095zM136.416232 23.8730159L145.021837 22.984127C144.829891 21.1111111 143.710202 19.2698413 141.054941 19.2698413 138.463662 19.2698413 136.704152 21.1428571 136.416232 23.8730159zM155.738855 31.1746032C152.37979 31.1746032 150.140413 28.5396825 150.140413 24.8571429 150.140413 20.4761905 153.147576 17.4920635 156.826553 17.4920635 159.257876 17.4920635 161.209333 19.047619 161.849155 21.1428571L164.216496 8 166.391891 8 162.808888 28.1587302C162.680924 28.8571429 162.808888 29.1746032 163.416719 29.1746032L164.632381 29.1746032 164.344461 30.9206349 162.87287 30.9206349C160.921413 30.9206349 160.505529 30 160.665484 28.6031746L160.761458 28.1904762C159.67376 30.0634921 157.786286 31.1746032 155.738855 31.1746032zM156.314695 29.3015873C159.161903 29.3015873 161.305306 27.0793651 161.305306 23.9365079 161.337297 21.3650794 159.737743 19.3968254 157.210446 19.3968254 154.267265 19.3968254 152.37979 21.7142857 152.37979 24.8888889 152.37979 27.4920635 153.883372 29.3015873 156.314695 29.3015873zM182.707351 31.1746032C180.212045 31.1746032 178.164615 29.6507937 177.492802 27.2380952L176.980944 30.9206349 174.80555 30.9206349 178.836428 8 181.011823 8 178.836428 20.2857143C179.956117 18.5396825 181.683636 17.4920635 183.667084 17.4920635 187.026149 17.4920635 189.297517 20.0634921 189.297517 23.8095238 189.297517 28.1269841 186.322345 31.1746032 182.707351 31.1746032zM182.195493 29.3015873C185.138674 29.3015873 187.05814 26.952381 187.05814 23.8095238 187.05814 21.2063492 185.554559 19.3968254 183.123235 19.3968254 180.276028 19.3968254 178.132624 21.6507937 178.132624 24.7619048 178.132624 27.3650794 179.700188 29.3015873 182.195493 29.3015873zM229.102183 25.2187756L228.566814 28.2436382C228.438902 28.9050139 228.566814 29.2514487 229.174394 29.2514487L230.485487 29.2514487 230.165708 30.9836231 228.63077 30.9836231C227.301949 30.9836231 226.596394 30.5597848 226.392794 29.6623279 225.051494 30.6574557 223.325782 31.0938524 221.297286 31.0938524 216.788404 31.0938524 213.334792 28.1963971 214.262151 22.9053918L216.660492 9.42592593 218.9629 9.42592593 216.564558 22.9368859C215.829067 27.0941043 217.971585 29.1097254 221.393219 29.1097254 224.463096 29.1097254 226.445725 27.6924918 227.085283 24.0391786L229.675492 9.42592593 231.9779 9.42592593 229.291757 24.3226253C229.236796 24.6333712 229.173541 24.9319932 229.102183 25.2187756zM196.591488 38C193.936226 38 191.920787 36.7936508 190.961054 34.8571429L192.688574 33.7460317C193.520342 35.2063492 194.60804 36.0952381 196.591488 36.0952381 198.926838 36.0952381 200.494402 34.6666667 201.006259 31.8730159L201.582099 28.7301587C200.622366 30.1269841 199.182767 31.2063492 197.071354 31.2063492 194.160164 31.2063492 192.240698 28.984127 192.88052 25.3650794L194.224146 17.7777778 196.399541 17.7777778 195.087906 25.1746032C194.640031 27.6825397 195.567772 29.2698413 197.83914 29.2698413 200.238473 29.2698413 201.742054 27.8412698 202.221921 25.1746032L203.565547 17.7777778 205.740942 17.7777778 203.181654 32.1587302C202.47785 36.1269841 200.078517 38 196.591488 38zM233.129104 30.8418997L235.463489 17.803351 237.637986 17.803351 237.094362 20.4173595C238.053698 18.6851852 239.652593 17.5199043 241.795111 17.5199043 244.705099 17.5199043 246.623772 19.7244898 245.984214 23.3148148L245.120811 28.1019148C244.9929 28.7632905 245.120811 29.1097254 245.760369 29.1097254L246.975529 29.1097254 246.65575 30.8418997 245.184767 30.8418997C243.266094 30.8418997 242.626536 29.9285714 242.978293 27.9444444L243.77774 23.5037793C244.22543 21.015747 243.298072 19.4410431 241.027642 19.4410431 238.6293 19.4410431 237.094362 20.8582766 236.614693 23.5037793L235.3036 30.8418997 233.129104 30.8418997zM253.722863 13.9925674C252.923416 13.9925674 252.187924 13.3941799 252.187924 12.4808516 252.187924 11.5675233 252.891438 10.9376417 253.722863 10.9376417 254.52231 10.9376417 255.257801 11.5675233 255.257801 12.4808516 255.257801 13.3941799 254.554288 13.9925674 253.722863 13.9925674zM252.234447 30.9836231C250.283796 30.9836231 249.676216 30.0702948 250.027973 28.0861678L251.818735 17.9450743 253.993231 17.9450743 252.170491 28.2436382C252.04258 28.9050139 252.170491 29.2514487 252.778071 29.2514487L254.089165 29.2514487 253.769386 30.9836231 252.234447 30.9836231zM259.382949 19.6300076L257.40032 19.6300076 257.720099 17.803351 259.702728 17.803351 260.949865 11.0006299 263.092383 11.0006299 261.877224 17.803351 265.458747 17.803351 265.138968 19.6300076 261.557445 19.6300076 260.246352 26.9051398C259.958551 28.5428319 260.438219 29.2357017 261.493489 29.2357017 262.292936 29.2357017 262.772605 28.9207609 263.220295 28.5428319L264.243587 29.9915596C263.572052 30.5899471 262.708649 31.0938524 261.237666 31.0938524 259.127126 31.0938524 257.528231 29.8970773 258.103833 26.8106576L259.382949 19.6300076zM271.854324 37.8650794C269.20016 37.8650794 267.185553 36.6683044 266.226216 34.7471655L267.953022 33.6448728C268.784447 35.0936004 269.871695 35.9754346 271.854324 35.9754346 274.18871 35.9754346 275.755627 34.5582011 276.267273 31.7867221L276.842875 28.6688083C275.883538 30.0545477 274.444533 31.1253464 272.333993 31.1253464 269.424005 31.1253464 267.505332 28.9207609 268.14489 25.3304359L269.487961 17.803351 271.662457 17.803351 270.351364 25.1414714C269.903673 27.6295037 270.831032 29.2042076 273.101462 29.2042076 275.499804 29.2042076 277.002764 27.786974 277.482432 25.1414714L278.825504 17.803351 281 17.803351 278.441769 32.0701688C277.738256 36.0069287 275.339914 37.8650794 271.854324 37.8650794z"/>
  </g>
</svg>
