<svg xmlns="http://www.w3.org/2000/svg" width="25" height="21" viewBox="0 0 25 21">
  <path fill="#FFFFFF" fill-rule="evenodd" d="M92.3652344,17.1699219 C91.6269494,18.1894582 90.8183638,19.0156218 89.9394531,19.6484375 L89.9394531,20.28125 C89.9394531,21.7226635 89.7460957,23.0234317 89.359375,24.1835938 C88.9726543,25.5195379 88.392582,26.7675723 87.6191406,27.9277344 C86.9511685,29.0175836 86.0371152,30.0898385 84.8769531,31.1445312 C83.7167911,32.0937547 82.4160228,32.8144507 80.9746094,33.3066406 C79.4980395,33.8691434 77.8808682,34.1503906 76.1230469,34.1503906 C73.4160021,34.1503906 70.9199333,33.4121168 68.6347656,31.9355469 C69.1269556,32.0058597 69.5136705,32.0410156 69.7949219,32.0410156 C72.0097767,32.0410156 74.0312409,31.3378977 75.859375,29.9316406 C74.8046822,29.9316406 73.855473,29.6152375 73.0117188,28.9824219 C72.1679645,28.3496062 71.5878922,27.5410205 71.2714844,26.5566406 C71.7636743,26.6269535 72.0800774,26.6621094 72.2207031,26.6621094 C72.6777367,26.6621094 73.0996074,26.5917976 73.4863281,26.4511719 C72.3964789,26.2402333 71.4648476,25.6953169 70.6914062,24.8164062 C69.9531213,23.9023392 69.5839844,22.8652402 69.5839844,21.7050781 L69.5839844,21.6523438 C70.2871129,22.0390644 71.0253868,22.2324219 71.7988281,22.2324219 C71.130856,21.8105448 70.6035176,21.2480504 70.2167969,20.5449219 C69.8300762,19.8769498 69.6367188,19.10352 69.6367188,18.2246094 C69.6367188,17.3105423 69.8476541,16.4843787 70.2695312,15.7460938 C71.5000062,17.2578201 72.9765539,18.4531206 74.6992188,19.3320312 C76.4921965,20.2460983 78.373037,20.7558588 80.3417969,20.8613281 C80.2363276,20.439451 80.1835938,20.0527361 80.1835938,19.7011719 C80.1835938,18.3652277 80.6581984,17.222661 81.6074219,16.2734375 C82.5566454,15.324214 83.71679,14.8496094 85.0878906,14.8496094 C86.4941477,14.8496094 87.6718703,15.3593699 88.6210938,16.3789062 C89.7109429,16.1679677 90.748042,15.7812528 91.7324219,15.21875 C91.3808576,16.3789121 90.6601617,17.2753875 89.5703125,17.9082031 C90.4140667,17.8027338 91.345698,17.5566426 92.3652344,17.1699219 Z" transform="translate(-68 -14)"/>
</svg>
